<svg width="137" height="132" viewBox="0 0 137 132" fill="none" xmlns="http://www.w3.org/2000/svg">
<path d="M72 100C96.2998 100 116 80.3386 116 56C116 31.6614 96.213 12 72 12C47.7002 12 28 31.6614 28 56C28 80.3386 47.7002 100 72 100Z" fill="#EAEEF9"/>
<path d="M121.433 42.251C123.407 42.251 125.007 40.6509 125.007 38.6771C125.007 36.7033 123.407 35.1033 121.433 35.1033C119.459 35.1033 117.859 36.7033 117.859 38.6771C117.859 40.6509 119.459 42.251 121.433 42.251Z" fill="#EAEEF9"/>
<path d="M126.659 28.3047C128.007 28.3047 129.1 27.212 129.1 25.864C129.1 24.5161 128.007 23.4233 126.659 23.4233C125.311 23.4233 124.219 24.5161 124.219 25.864C124.219 27.212 125.311 28.3047 126.659 28.3047Z" fill="#EAEEF9"/>
<path d="M29.4329 27.2537C30.7808 27.2537 31.8735 26.1609 31.8735 24.813C31.8735 23.465 30.7808 22.3723 29.4329 22.3723C28.0849 22.3723 26.9922 23.465 26.9922 24.813C26.9922 26.1609 28.0849 27.2537 29.4329 27.2537Z" fill="#EAEEF9"/>
<path d="M14.5327 74.324C17.036 74.324 19.0654 72.2946 19.0654 69.7913C19.0654 67.288 17.036 65.2586 14.5327 65.2586C12.0294 65.2586 10 67.288 10 69.7913C10 72.2946 12.0294 74.324 14.5327 74.324Z" fill="#EAEEF9"/>
<g filter="url(#filter0_d_34198_121881)">
<path d="M107.603 98.0941H33.6689C32.2286 98.0941 31.0469 96.9123 31.0469 95.472V77.4131C31.0469 75.9729 32.2286 74.7911 33.6689 74.7911H107.603C109.043 74.7911 110.225 75.9729 110.225 77.4131V95.472C110.225 96.9123 109.043 98.0941 107.603 98.0941Z" fill="url(#paint0_linear_34198_121881)"/>
</g>
<path d="M95.3355 83.5442H54.1583C53.272 83.5442 52.5703 83.0057 52.5703 82.3255C52.5703 81.6453 53.272 81.1068 54.1583 81.1068H95.3355C96.2218 81.1068 96.9235 81.6453 96.9235 82.3255C96.9235 83.0057 96.2218 83.5442 95.3355 83.5442Z" fill="#D6DCE8"/>
<path d="M80.5634 90.9668H54.1583C53.272 90.9668 52.5703 90.4283 52.5703 89.7481C52.5703 89.0679 53.272 88.5294 54.1583 88.5294H80.5634C81.4497 88.5294 82.1514 89.0679 82.1514 89.7481C82.1514 90.4283 81.4497 90.9668 80.5634 90.9668Z" fill="#D6DCE8"/>
<path d="M41.9798 92.9981C45.6103 92.9981 48.5534 90.055 48.5534 86.4245C48.5534 82.794 45.6103 79.8509 41.9798 79.8509C38.3493 79.8509 35.4062 82.794 35.4062 86.4245C35.4062 90.055 38.3493 92.9981 41.9798 92.9981Z" fill="#989FB0"/>
<path fill-rule="evenodd" clip-rule="evenodd" d="M44.5821 84.9255L40.4459 89.0247L39.3906 87.9599L43.5268 83.8607L44.5821 84.9255Z" fill="white"/>
<path fill-rule="evenodd" clip-rule="evenodd" d="M40.4459 83.8607L44.5821 87.9599L43.5268 89.0247L39.3906 84.9255L40.4459 83.8607Z" fill="white"/>
<g filter="url(#filter1_d_34198_121881)">
<path d="M110.088 38.6164H36.1533C34.713 38.6164 33.5312 37.4347 33.5312 35.9944V17.9355C33.5312 16.4952 34.713 15.3135 36.1533 15.3135H110.088C111.528 15.3135 112.71 16.4952 112.71 17.9355V35.9944C112.71 37.4347 111.528 38.6164 110.088 38.6164Z" fill="url(#paint1_linear_34198_121881)"/>
</g>
<path d="M97.8198 24.0651H56.6427C55.7564 24.0651 55.0547 23.5266 55.0547 22.8464C55.0547 22.1662 55.7564 21.6277 56.6427 21.6277H97.8198C98.7062 21.6277 99.4078 22.1662 99.4078 22.8464C99.4078 23.5266 98.7062 24.0651 97.8198 24.0651Z" fill="#D6DCE8"/>
<path d="M83.0478 31.4892H56.6427C55.7564 31.4892 55.0547 30.9507 55.0547 30.2705C55.0547 29.5903 55.7564 29.0518 56.6427 29.0518H83.0478C83.9341 29.0518 84.6358 29.5903 84.6358 30.2705C84.6358 30.9507 83.9341 31.4892 83.0478 31.4892Z" fill="#D6DCE8"/>
<path d="M44.4642 33.5204C48.0947 33.5204 51.0378 30.5773 51.0378 26.9469C51.0378 23.3164 48.0947 20.3733 44.4642 20.3733C40.8337 20.3733 37.8906 23.3164 37.8906 26.9469C37.8906 30.5773 40.8337 33.5204 44.4642 33.5204Z" fill="#989FB0"/>
<path fill-rule="evenodd" clip-rule="evenodd" d="M47.9987 25.8035L43.3325 30.4697L40.7344 27.8715L41.7944 26.8115L43.3325 28.3496L46.9386 24.7434L47.9987 25.8035Z" fill="white"/>
<g filter="url(#filter2_d_34198_121881)">
<path d="M98.7416 68.2153H24.7705C23.3302 68.2153 22.1484 67.0335 22.1484 65.5933V47.5344C22.1484 46.0941 23.3302 44.9124 24.7705 44.9124H98.7047C100.145 44.9124 101.327 46.0941 101.327 47.5344V65.5933C101.364 67.0705 100.182 68.2153 98.7416 68.2153Z" fill="url(#paint2_linear_34198_121881)"/>
</g>
<path d="M33.1126 63.1559C36.7431 63.1559 39.6862 60.2128 39.6862 56.5824C39.6862 52.9519 36.7431 50.0088 33.1126 50.0088C29.4822 50.0088 26.5391 52.9519 26.5391 56.5824C26.5391 60.2128 29.4822 63.1559 33.1126 63.1559Z" fill="#989FB0"/>
<path fill-rule="evenodd" clip-rule="evenodd" d="M36.7487 55.0447L32.0825 59.7109L29.4844 57.1128L30.5444 56.0527L32.0825 57.5908L35.6886 53.9846L36.7487 55.0447Z" fill="white"/>
<path d="M86.4839 53.6654H45.3067C44.4204 53.6654 43.7188 53.1269 43.7188 52.4467C43.7188 51.7665 44.4204 51.228 45.3067 51.228H86.4839C87.3702 51.228 88.0719 51.7665 88.0719 52.4467C88.0719 53.1269 87.3333 53.6654 86.4839 53.6654Z" fill="#D6DCE8"/>
<path d="M71.7118 61.1249H45.3067C44.4204 61.1249 43.7188 60.5864 43.7188 59.9062C43.7188 59.226 44.4204 58.6875 45.3067 58.6875H71.7118C72.5982 58.6875 73.2998 59.226 73.2998 59.9062C73.2629 60.5864 72.5612 61.1249 71.7118 61.1249Z" fill="#D6DCE8"/>
<defs>
<filter id="filter0_d_34198_121881" x="9.04688" y="63.7911" width="123.178" height="67.3029" filterUnits="userSpaceOnUse" color-interpolation-filters="sRGB">
<feFlood flood-opacity="0" result="BackgroundImageFix"/>
<feColorMatrix in="SourceAlpha" type="matrix" values="0 0 0 0 0 0 0 0 0 0 0 0 0 0 0 0 0 0 127 0" result="hardAlpha"/>
<feOffset dy="11"/>
<feGaussianBlur stdDeviation="11"/>
<feColorMatrix type="matrix" values="0 0 0 0 0.397708 0 0 0 0 0.468625 0 0 0 0 0.575 0 0 0 0.15 0"/>
<feBlend mode="normal" in2="BackgroundImageFix" result="effect1_dropShadow_34198_121881"/>
<feBlend mode="normal" in="SourceGraphic" in2="effect1_dropShadow_34198_121881" result="shape"/>
</filter>
<filter id="filter1_d_34198_121881" x="11.5312" y="4.31348" width="123.178" height="67.3029" filterUnits="userSpaceOnUse" color-interpolation-filters="sRGB">
<feFlood flood-opacity="0" result="BackgroundImageFix"/>
<feColorMatrix in="SourceAlpha" type="matrix" values="0 0 0 0 0 0 0 0 0 0 0 0 0 0 0 0 0 0 127 0" result="hardAlpha"/>
<feOffset dy="11"/>
<feGaussianBlur stdDeviation="11"/>
<feColorMatrix type="matrix" values="0 0 0 0 0.397708 0 0 0 0 0.468625 0 0 0 0 0.575 0 0 0 0.15 0"/>
<feBlend mode="normal" in2="BackgroundImageFix" result="effect1_dropShadow_34198_121881"/>
<feBlend mode="normal" in="SourceGraphic" in2="effect1_dropShadow_34198_121881" result="shape"/>
</filter>
<filter id="filter2_d_34198_121881" x="0.148438" y="33.9124" width="123.179" height="67.3029" filterUnits="userSpaceOnUse" color-interpolation-filters="sRGB">
<feFlood flood-opacity="0" result="BackgroundImageFix"/>
<feColorMatrix in="SourceAlpha" type="matrix" values="0 0 0 0 0 0 0 0 0 0 0 0 0 0 0 0 0 0 127 0" result="hardAlpha"/>
<feOffset dy="11"/>
<feGaussianBlur stdDeviation="11"/>
<feColorMatrix type="matrix" values="0 0 0 0 0.397708 0 0 0 0 0.468625 0 0 0 0 0.575 0 0 0 0.15 0"/>
<feBlend mode="normal" in2="BackgroundImageFix" result="effect1_dropShadow_34198_121881"/>
<feBlend mode="normal" in="SourceGraphic" in2="effect1_dropShadow_34198_121881" result="shape"/>
</filter>
<linearGradient id="paint0_linear_34198_121881" x1="70.6102" y1="74.2521" x2="70.6102" y2="98.3453" gradientUnits="userSpaceOnUse">
<stop stop-color="#FDFEFF"/>
<stop offset="0.9964" stop-color="#F4F8FE"/>
</linearGradient>
<linearGradient id="paint1_linear_34198_121881" x1="73.0946" y1="14.7745" x2="73.0946" y2="38.8676" gradientUnits="userSpaceOnUse">
<stop stop-color="#FDFEFF"/>
<stop offset="0.9964" stop-color="#F4F8FE"/>
</linearGradient>
<linearGradient id="paint2_linear_34198_121881" x1="61.7122" y1="44.3733" x2="61.7122" y2="68.4665" gradientUnits="userSpaceOnUse">
<stop stop-color="#FDFEFF"/>
<stop offset="0.9964" stop-color="#F4F8FE"/>
</linearGradient>
</defs>
</svg>
