<svg width="350" height="92" viewBox="0 0 350 92" fill="none" xmlns="http://www.w3.org/2000/svg">
<g clip-path="url(#clip0_12985_100383)">
<rect width="350" height="92" rx="12" fill="#203E3C"/>
<g opacity="0.7">
<g opacity="0.7">
<mask id="mask0_12985_100383" style="mask-type:alpha" maskUnits="userSpaceOnUse" x="-7" y="-16" width="364" height="225">
<rect x="-7" y="-16" width="364" height="225" fill="#EBEBEB" fill-opacity="0.43"/>
</mask>
<g mask="url(#mask0_12985_100383)">
<g opacity="0.2" filter="url(#filter0_f_12985_100383)">
<ellipse cx="27.6326" cy="51.6753" rx="101.111" ry="99.8628" fill="#3113AA" fill-opacity="0.6"/>
</g>
<g opacity="0.2" filter="url(#filter1_f_12985_100383)">
<ellipse cx="282.103" cy="177.746" rx="101.111" ry="99.8628" fill="#1334AA" fill-opacity="0.6"/>
</g>
<g opacity="0.2" filter="url(#filter2_f_12985_100383)">
<ellipse cx="34.9607" cy="-55.9341" rx="101.111" ry="99.8628" fill="#B61AFF" fill-opacity="0.4"/>
</g>
<g opacity="0.3" filter="url(#filter3_d_12985_100383)">
<path d="M475.424 86.9453L249.087 86.9453C249.087 86.9453 197.062 18.9858 257.404 1.03809C315.235 -16.1628 319.8 -57.9564 336.644 -68.9179C373.997 -93.2248 475.424 -20.4421 475.424 -20.4421V86.9453Z" fill="url(#paint0_linear_12985_100383)" shape-rendering="crispEdges"/>
</g>
<g opacity="0.3" filter="url(#filter4_d_12985_100383)">
<path d="M466.674 99.1953H269.367C269.367 99.1953 256.083 20.3875 300.743 5.82666C345.403 -8.73421 466.674 34.8657 466.674 34.8657V99.1953Z" fill="url(#paint1_linear_12985_100383)" shape-rendering="crispEdges"/>
</g>
</g>
</g>
<g opacity="0.03" filter="url(#filter5_d_12985_100383)">
<path d="M-63.332 235.938L108.516 138.992C108.516 138.992 81.3636 63.8259 35.3119 73.0873C-10.7398 82.3488 -94.94 179.909 -94.94 179.909L-63.332 235.938Z" fill="url(#paint2_linear_12985_100383)" shape-rendering="crispEdges"/>
</g>
</g>
<path d="M107.621 34V19.9082H113.295C114.304 19.9082 115.17 20.0872 115.893 20.4453C116.615 20.8034 117.169 21.3079 117.553 21.959C117.943 22.61 118.139 23.388 118.139 24.293V24.3125C118.139 25.2435 117.904 26.0703 117.436 26.793C116.967 27.5091 116.316 28.0169 115.482 28.3164L118.559 34H115.688L112.924 28.6973C112.904 28.6973 112.882 28.6973 112.855 28.6973C112.836 28.6973 112.813 28.6973 112.787 28.6973H110.141V34H107.621ZM110.141 26.7539H113.041C113.835 26.7539 114.454 26.5456 114.896 26.1289C115.339 25.7057 115.561 25.1165 115.561 24.3613V24.3418C115.561 23.5996 115.329 23.0137 114.867 22.584C114.411 22.1543 113.783 21.9395 112.982 21.9395H110.141V26.7539ZM123.578 34.1758C122.901 34.1758 122.299 34.0456 121.771 33.7852C121.244 33.5247 120.831 33.1569 120.531 32.6816C120.232 32.1999 120.082 31.64 120.082 31.002V30.9824C120.082 30.3509 120.238 29.8105 120.551 29.3613C120.863 28.9056 121.319 28.5475 121.918 28.2871C122.517 28.0267 123.243 27.8704 124.096 27.8184L128.051 27.584V29.1855L124.447 29.4199C123.783 29.4525 123.288 29.5957 122.963 29.8496C122.644 30.097 122.484 30.4355 122.484 30.8652V30.8848C122.484 31.334 122.654 31.6855 122.992 31.9395C123.337 32.1934 123.777 32.3203 124.311 32.3203C124.799 32.3203 125.232 32.2227 125.609 32.0273C125.987 31.832 126.286 31.5684 126.508 31.2363C126.729 30.8978 126.84 30.5202 126.84 30.1035V26.793C126.84 26.2591 126.671 25.849 126.332 25.5625C125.993 25.2695 125.502 25.123 124.857 25.123C124.291 25.123 123.832 25.2272 123.48 25.4355C123.135 25.6374 122.904 25.9173 122.787 26.2754L122.777 26.3242H120.492L120.502 26.2363C120.58 25.6309 120.808 25.1003 121.186 24.6445C121.57 24.1888 122.081 23.834 122.719 23.5801C123.363 23.3197 124.112 23.1895 124.965 23.1895C125.87 23.1895 126.641 23.3327 127.279 23.6191C127.917 23.9056 128.406 24.3158 128.744 24.8496C129.083 25.377 129.252 26.0117 129.252 26.7539V34H126.84V32.5059H126.693C126.498 32.8509 126.244 33.1504 125.932 33.4043C125.626 33.6517 125.274 33.8438 124.877 33.9805C124.48 34.1107 124.047 34.1758 123.578 34.1758ZM137.836 34.1855C137.341 34.1855 136.882 34.1107 136.459 33.9609C136.042 33.8112 135.678 33.5964 135.365 33.3164C135.053 33.0365 134.799 32.7012 134.604 32.3105H134.457V34H132.025V19.3613H134.457V25.123H134.604C134.792 24.7259 135.046 24.3874 135.365 24.1074C135.684 23.8275 136.052 23.6094 136.469 23.4531C136.892 23.2969 137.348 23.2188 137.836 23.2188C138.734 23.2188 139.509 23.4401 140.16 23.8828C140.811 24.3255 141.312 24.957 141.664 25.7773C142.016 26.5911 142.191 27.5645 142.191 28.6973V28.707C142.191 29.8268 142.012 30.7969 141.654 31.6172C141.303 32.4375 140.801 33.0723 140.15 33.5215C139.499 33.9642 138.728 34.1855 137.836 34.1855ZM137.084 32.1348C137.631 32.1348 138.1 31.998 138.49 31.7246C138.887 31.4512 139.19 31.0573 139.398 30.543C139.613 30.0286 139.721 29.4167 139.721 28.707V28.6973C139.721 27.9811 139.613 27.3691 139.398 26.8613C139.19 26.3535 138.887 25.9629 138.49 25.6895C138.1 25.4095 137.631 25.2695 137.084 25.2695C136.55 25.2695 136.081 25.4095 135.678 25.6895C135.281 25.9629 134.971 26.3568 134.75 26.8711C134.535 27.3789 134.428 27.9876 134.428 28.6973V28.7168C134.428 29.4134 134.535 30.0189 134.75 30.5332C134.971 31.0475 135.281 31.4447 135.678 31.7246C136.075 31.998 136.544 32.1348 137.084 32.1348ZM150.336 34.1855C149.841 34.1855 149.382 34.1107 148.959 33.9609C148.542 33.8112 148.178 33.5964 147.865 33.3164C147.553 33.0365 147.299 32.7012 147.104 32.3105H146.957V34H144.525V19.3613H146.957V25.123H147.104C147.292 24.7259 147.546 24.3874 147.865 24.1074C148.184 23.8275 148.552 23.6094 148.969 23.4531C149.392 23.2969 149.848 23.2188 150.336 23.2188C151.234 23.2188 152.009 23.4401 152.66 23.8828C153.311 24.3255 153.812 24.957 154.164 25.7773C154.516 26.5911 154.691 27.5645 154.691 28.6973V28.707C154.691 29.8268 154.512 30.7969 154.154 31.6172C153.803 32.4375 153.301 33.0723 152.65 33.5215C151.999 33.9642 151.228 34.1855 150.336 34.1855ZM149.584 32.1348C150.131 32.1348 150.6 31.998 150.99 31.7246C151.387 31.4512 151.69 31.0573 151.898 30.543C152.113 30.0286 152.221 29.4167 152.221 28.707V28.6973C152.221 27.9811 152.113 27.3691 151.898 26.8613C151.69 26.3535 151.387 25.9629 150.99 25.6895C150.6 25.4095 150.131 25.2695 149.584 25.2695C149.05 25.2695 148.581 25.4095 148.178 25.6895C147.781 25.9629 147.471 26.3568 147.25 26.8711C147.035 27.3789 146.928 27.9876 146.928 28.6973V28.7168C146.928 29.4134 147.035 30.0189 147.25 30.5332C147.471 31.0475 147.781 31.4447 148.178 31.7246C148.575 31.998 149.044 32.1348 149.584 32.1348ZM157.729 37.6816C157.559 37.6816 157.387 37.6751 157.211 37.6621C157.035 37.6491 156.872 37.6361 156.723 37.623V35.7578C156.82 35.7708 156.934 35.7806 157.064 35.7871C157.195 35.8001 157.328 35.8066 157.465 35.8066C157.96 35.8066 158.354 35.7025 158.646 35.4941C158.946 35.2923 159.164 34.9538 159.301 34.4785L159.438 34.0098L155.639 23.4043H158.285L161.049 32.6914L160.453 31.7344H161.215L160.639 32.6914L163.393 23.4043H165.951L162.152 34.2637C161.853 35.1165 161.508 35.7936 161.117 36.2949C160.727 36.7962 160.258 37.151 159.711 37.3594C159.164 37.5742 158.503 37.6816 157.729 37.6816ZM173.07 34V19.9082H182.055V22.0273H175.59V26.1973H181.498V28.248H175.59V34H173.07ZM184.359 34V23.4043H186.791V25.0742H186.928C187.104 24.4883 187.423 24.0326 187.885 23.707C188.347 23.3815 188.913 23.2188 189.584 23.2188C189.766 23.2188 189.939 23.2318 190.102 23.2578C190.271 23.2773 190.411 23.3001 190.521 23.3262V25.5137C190.346 25.4681 190.16 25.4355 189.965 25.416C189.776 25.39 189.577 25.377 189.369 25.377C188.848 25.377 188.393 25.4779 188.002 25.6797C187.618 25.875 187.318 26.1582 187.104 26.5293C186.895 26.8939 186.791 27.3333 186.791 27.8477V34H184.359ZM196.596 34.2148C195.548 34.2148 194.643 33.9935 193.881 33.5508C193.126 33.1016 192.543 32.4668 192.133 31.6465C191.729 30.8262 191.527 29.8529 191.527 28.7266V28.7168C191.527 27.6035 191.729 26.6335 192.133 25.8066C192.543 24.9798 193.119 24.3385 193.861 23.8828C194.604 23.4206 195.479 23.1895 196.488 23.1895C197.491 23.1895 198.357 23.4108 199.086 23.8535C199.822 24.2962 200.385 24.918 200.775 25.7188C201.173 26.513 201.371 27.444 201.371 28.5117V29.3125H192.748V27.6816H200.189L199.027 29.2051V28.2383C199.027 27.5352 198.92 26.9525 198.705 26.4902C198.49 26.028 198.194 25.6797 197.816 25.4453C197.445 25.2109 197.012 25.0938 196.518 25.0938C196.023 25.0938 195.583 25.2142 195.199 25.4551C194.815 25.696 194.509 26.0508 194.281 26.5195C194.06 26.9883 193.949 27.5612 193.949 28.2383V29.2051C193.949 29.8561 194.057 30.4128 194.271 30.875C194.493 31.3372 194.805 31.6921 195.209 31.9395C195.619 32.1868 196.101 32.3105 196.654 32.3105C197.084 32.3105 197.455 32.2487 197.768 32.125C198.08 31.9948 198.334 31.8385 198.529 31.6562C198.725 31.4674 198.861 31.2852 198.939 31.1094L198.969 31.041H201.264L201.244 31.1289C201.16 31.487 201.003 31.8483 200.775 32.2129C200.548 32.571 200.245 32.903 199.867 33.209C199.49 33.5085 199.027 33.7526 198.48 33.9414C197.94 34.1237 197.312 34.2148 196.596 34.2148ZM208.158 34.2148C207.11 34.2148 206.205 33.9935 205.443 33.5508C204.688 33.1016 204.105 32.4668 203.695 31.6465C203.292 30.8262 203.09 29.8529 203.09 28.7266V28.7168C203.09 27.6035 203.292 26.6335 203.695 25.8066C204.105 24.9798 204.682 24.3385 205.424 23.8828C206.166 23.4206 207.042 23.1895 208.051 23.1895C209.053 23.1895 209.919 23.4108 210.648 23.8535C211.384 24.2962 211.947 24.918 212.338 25.7188C212.735 26.513 212.934 27.444 212.934 28.5117V29.3125H204.311V27.6816H211.752L210.59 29.2051V28.2383C210.59 27.5352 210.482 26.9525 210.268 26.4902C210.053 26.028 209.757 25.6797 209.379 25.4453C209.008 25.2109 208.575 25.0938 208.08 25.0938C207.585 25.0938 207.146 25.2142 206.762 25.4551C206.378 25.696 206.072 26.0508 205.844 26.5195C205.622 26.9883 205.512 27.5612 205.512 28.2383V29.2051C205.512 29.8561 205.619 30.4128 205.834 30.875C206.055 31.3372 206.368 31.6921 206.771 31.9395C207.182 32.1868 207.663 32.3105 208.217 32.3105C208.646 32.3105 209.018 32.2487 209.33 32.125C209.643 31.9948 209.896 31.8385 210.092 31.6562C210.287 31.4674 210.424 31.2852 210.502 31.1094L210.531 31.041H212.826L212.807 31.1289C212.722 31.487 212.566 31.8483 212.338 32.2129C212.11 32.571 211.807 32.903 211.43 33.209C211.052 33.5085 210.59 33.7526 210.043 33.9414C209.503 34.1237 208.874 34.2148 208.158 34.2148ZM226.498 34.3223C225.476 34.3223 224.555 34.153 223.734 33.8145C222.921 33.4759 222.224 32.9844 221.645 32.3398C221.072 31.6953 220.632 30.9206 220.326 30.0156C220.02 29.1042 219.867 28.0788 219.867 26.9395V26.9297C219.867 25.4258 220.137 24.127 220.678 23.0332C221.218 21.9329 221.98 21.0833 222.963 20.4844C223.952 19.8854 225.118 19.5859 226.459 19.5859C227.546 19.5859 228.516 19.7812 229.369 20.1719C230.222 20.556 230.919 21.0931 231.459 21.7832C232.006 22.4733 232.361 23.2708 232.523 24.1758L232.543 24.293H230.023L229.994 24.1953C229.76 23.4206 229.337 22.8216 228.725 22.3984C228.113 21.9753 227.357 21.7637 226.459 21.7637C225.632 21.7637 224.916 21.972 224.311 22.3887C223.712 22.8053 223.246 23.3978 222.914 24.166C222.589 24.9342 222.426 25.849 222.426 26.9102V26.9199C222.426 27.7272 222.52 28.4531 222.709 29.0977C222.904 29.7422 223.181 30.2923 223.539 30.748C223.897 31.1973 224.327 31.5423 224.828 31.7832C225.336 32.0241 225.906 32.1445 226.537 32.1445C227.247 32.1445 227.875 32.0078 228.422 31.7344C228.969 31.4544 229.395 31.0671 229.701 30.5723C230.007 30.071 230.167 29.4883 230.18 28.8242L230.189 28.541H226.781V26.6074H232.65V28.3164C232.65 29.2344 232.507 30.0645 232.221 30.8066C231.941 31.5423 231.531 32.1738 230.99 32.7012C230.456 33.2285 229.809 33.6322 229.047 33.9121C228.292 34.1855 227.442 34.3223 226.498 34.3223ZM238.012 34.1758C237.335 34.1758 236.732 34.0456 236.205 33.7852C235.678 33.5247 235.264 33.1569 234.965 32.6816C234.665 32.1999 234.516 31.64 234.516 31.002V30.9824C234.516 30.3509 234.672 29.8105 234.984 29.3613C235.297 28.9056 235.753 28.5475 236.352 28.2871C236.951 28.0267 237.676 27.8704 238.529 27.8184L242.484 27.584V29.1855L238.881 29.4199C238.217 29.4525 237.722 29.5957 237.396 29.8496C237.077 30.097 236.918 30.4355 236.918 30.8652V30.8848C236.918 31.334 237.087 31.6855 237.426 31.9395C237.771 32.1934 238.21 32.3203 238.744 32.3203C239.232 32.3203 239.665 32.2227 240.043 32.0273C240.421 31.832 240.72 31.5684 240.941 31.2363C241.163 30.8978 241.273 30.5202 241.273 30.1035V26.793C241.273 26.2591 241.104 25.849 240.766 25.5625C240.427 25.2695 239.936 25.123 239.291 25.123C238.725 25.123 238.266 25.2272 237.914 25.4355C237.569 25.6374 237.338 25.9173 237.221 26.2754L237.211 26.3242H234.926L234.936 26.2363C235.014 25.6309 235.242 25.1003 235.619 24.6445C236.003 24.1888 236.514 23.834 237.152 23.5801C237.797 23.3197 238.546 23.1895 239.398 23.1895C240.303 23.1895 241.075 23.3327 241.713 23.6191C242.351 23.9056 242.839 24.3158 243.178 24.8496C243.516 25.377 243.686 26.0117 243.686 26.7539V34H241.273V32.5059H241.127C240.932 32.8509 240.678 33.1504 240.365 33.4043C240.059 33.6517 239.708 33.8438 239.311 33.9805C238.913 34.1107 238.48 34.1758 238.012 34.1758ZM250.404 34.2148C249.499 34.2148 248.721 34.0846 248.07 33.8242C247.419 33.5638 246.905 33.2025 246.527 32.7402C246.156 32.2715 245.938 31.7311 245.873 31.1191L245.863 31.0801H248.275L248.285 31.1191C248.402 31.5098 248.64 31.8255 248.998 32.0664C249.356 32.3008 249.835 32.418 250.434 32.418C250.844 32.418 251.199 32.3626 251.498 32.252C251.798 32.1413 252.032 31.9883 252.201 31.793C252.37 31.5911 252.455 31.3568 252.455 31.0898V31.0801C252.455 30.7676 252.331 30.5072 252.084 30.2988C251.843 30.0905 251.436 29.9212 250.863 29.791L249.135 29.4102C248.464 29.2604 247.908 29.0521 247.465 28.7852C247.022 28.5182 246.69 28.1895 246.469 27.7988C246.254 27.4082 246.146 26.9557 246.146 26.4414V26.4316C246.146 25.7871 246.326 25.224 246.684 24.7422C247.042 24.2539 247.54 23.873 248.178 23.5996C248.816 23.3262 249.551 23.1895 250.385 23.1895C251.251 23.1895 251.993 23.3262 252.611 23.5996C253.236 23.8665 253.721 24.2311 254.066 24.6934C254.418 25.1556 254.617 25.6764 254.662 26.2559V26.2949H252.387L252.377 26.2559C252.299 25.8978 252.087 25.5983 251.742 25.3574C251.404 25.11 250.951 24.9863 250.385 24.9863C250.02 24.9863 249.701 25.0417 249.428 25.1523C249.154 25.2565 248.939 25.4062 248.783 25.6016C248.627 25.7969 248.549 26.028 248.549 26.2949V26.3047C248.549 26.5065 248.601 26.6888 248.705 26.8516C248.809 27.0078 248.975 27.1445 249.203 27.2617C249.438 27.3724 249.743 27.4733 250.121 27.5645L251.84 27.9551C252.895 28.1895 253.666 28.5345 254.154 28.9902C254.649 29.446 254.896 30.0612 254.896 30.8359V30.8555C254.896 31.526 254.701 32.1152 254.311 32.623C253.926 33.1243 253.396 33.515 252.719 33.7949C252.048 34.0749 251.277 34.2148 250.404 34.2148ZM263.666 34V32.0469H267.826C268.757 32.0469 269.464 31.8581 269.945 31.4805C270.427 31.1029 270.668 30.556 270.668 29.8398V29.8203C270.668 29.3451 270.557 28.9447 270.336 28.6191C270.115 28.2936 269.783 28.0495 269.34 27.8867C268.904 27.724 268.363 27.6426 267.719 27.6426H263.666V25.8555H267.318C268.217 25.8555 268.9 25.6829 269.369 25.3379C269.838 24.9928 270.072 24.498 270.072 23.8535V23.834C270.072 23.209 269.861 22.724 269.438 22.3789C269.014 22.0339 268.422 21.8613 267.66 21.8613H263.666V19.9082H268.275C269.167 19.9082 269.932 20.0514 270.57 20.3379C271.208 20.6243 271.697 21.0312 272.035 21.5586C272.38 22.0794 272.553 22.7012 272.553 23.4238V23.4434C272.553 23.9382 272.439 24.4004 272.211 24.8301C271.99 25.2598 271.687 25.6211 271.303 25.9141C270.925 26.207 270.495 26.3893 270.014 26.4609V26.6074C270.652 26.666 271.212 26.8483 271.693 27.1543C272.182 27.4538 272.562 27.8477 272.836 28.3359C273.109 28.8242 273.246 29.3743 273.246 29.9863V30.0059C273.246 30.8262 273.051 31.5358 272.66 32.1348C272.27 32.7337 271.713 33.196 270.99 33.5215C270.268 33.8405 269.405 34 268.402 34H263.666ZM262.406 34V19.9082H264.926V34H262.406ZM278.461 34.1758C277.784 34.1758 277.182 34.0456 276.654 33.7852C276.127 33.5247 275.714 33.1569 275.414 32.6816C275.115 32.1999 274.965 31.64 274.965 31.002V30.9824C274.965 30.3509 275.121 29.8105 275.434 29.3613C275.746 28.9056 276.202 28.5475 276.801 28.2871C277.4 28.0267 278.126 27.8704 278.979 27.8184L282.934 27.584V29.1855L279.33 29.4199C278.666 29.4525 278.171 29.5957 277.846 29.8496C277.527 30.097 277.367 30.4355 277.367 30.8652V30.8848C277.367 31.334 277.536 31.6855 277.875 31.9395C278.22 32.1934 278.66 32.3203 279.193 32.3203C279.682 32.3203 280.115 32.2227 280.492 32.0273C280.87 31.832 281.169 31.5684 281.391 31.2363C281.612 30.8978 281.723 30.5202 281.723 30.1035V26.793C281.723 26.2591 281.553 25.849 281.215 25.5625C280.876 25.2695 280.385 25.123 279.74 25.123C279.174 25.123 278.715 25.2272 278.363 25.4355C278.018 25.6374 277.787 25.9173 277.67 26.2754L277.66 26.3242H275.375L275.385 26.2363C275.463 25.6309 275.691 25.1003 276.068 24.6445C276.452 24.1888 276.964 23.834 277.602 23.5801C278.246 23.3197 278.995 23.1895 279.848 23.1895C280.753 23.1895 281.524 23.3327 282.162 23.6191C282.8 23.9056 283.288 24.3158 283.627 24.8496C283.965 25.377 284.135 26.0117 284.135 26.7539V34H281.723V32.5059H281.576C281.381 32.8509 281.127 33.1504 280.814 33.4043C280.508 33.6517 280.157 33.8438 279.76 33.9805C279.363 34.1107 278.93 34.1758 278.461 34.1758ZM290.678 34.1855C289.786 34.1855 289.014 33.9642 288.363 33.5215C287.712 33.0723 287.208 32.4375 286.85 31.6172C286.492 30.7969 286.312 29.8268 286.312 28.707V28.6973C286.312 27.5645 286.488 26.5911 286.84 25.7773C287.198 24.957 287.702 24.3255 288.354 23.8828C289.005 23.4401 289.776 23.2188 290.668 23.2188C291.156 23.2188 291.612 23.2969 292.035 23.4531C292.458 23.6094 292.829 23.8275 293.148 24.1074C293.467 24.3874 293.721 24.7259 293.91 25.123H294.047V19.3613H296.479V34H294.047V32.3105H293.91C293.715 32.7012 293.458 33.0365 293.139 33.3164C292.826 33.5964 292.462 33.8112 292.045 33.9609C291.628 34.1107 291.173 34.1855 290.678 34.1855ZM291.42 32.1348C291.967 32.1348 292.439 31.998 292.836 31.7246C293.233 31.4447 293.539 31.0475 293.754 30.5332C293.969 30.0189 294.076 29.4134 294.076 28.7168V28.6973C294.076 27.9876 293.965 27.3789 293.744 26.8711C293.529 26.3568 293.223 25.9629 292.826 25.6895C292.429 25.4095 291.96 25.2695 291.42 25.2695C290.88 25.2695 290.411 25.4095 290.014 25.6895C289.623 25.9629 289.32 26.3535 289.105 26.8613C288.897 27.3691 288.793 27.9811 288.793 28.6973V28.707C288.793 29.4167 288.897 30.0286 289.105 30.543C289.32 31.0573 289.623 31.4512 290.014 31.7246C290.411 31.998 290.88 32.1348 291.42 32.1348ZM303.91 37.7207C302.979 37.7207 302.172 37.5938 301.488 37.3398C300.811 37.0924 300.274 36.7441 299.877 36.2949C299.486 35.8522 299.245 35.3379 299.154 34.752L299.164 34.7129H301.576L301.596 34.752C301.693 35.0775 301.941 35.3477 302.338 35.5625C302.742 35.7773 303.275 35.8848 303.939 35.8848C304.76 35.8848 305.395 35.696 305.844 35.3184C306.299 34.9408 306.527 34.4167 306.527 33.7461V31.8223H306.391C306.189 32.1999 305.928 32.5221 305.609 32.7891C305.29 33.056 304.923 33.2611 304.506 33.4043C304.089 33.541 303.633 33.6094 303.139 33.6094C302.247 33.6094 301.475 33.3945 300.824 32.9648C300.173 32.5286 299.669 31.9264 299.311 31.1582C298.959 30.39 298.783 29.4948 298.783 28.4727V28.4531C298.783 27.4115 298.962 26.5 299.32 25.7188C299.678 24.931 300.183 24.319 300.834 23.8828C301.492 23.4401 302.276 23.2188 303.188 23.2188C303.682 23.2188 304.135 23.3001 304.545 23.4629C304.955 23.6191 305.316 23.8405 305.629 24.127C305.948 24.4134 306.208 24.7585 306.41 25.1621H306.518V23.4043H308.949V33.7266C308.949 34.5404 308.744 35.2467 308.334 35.8457C307.924 36.4447 307.341 36.9069 306.586 37.2324C305.831 37.5579 304.939 37.7207 303.91 37.7207ZM303.891 31.6855C304.444 31.6855 304.919 31.5521 305.316 31.2852C305.714 31.0117 306.02 30.6341 306.234 30.1523C306.449 29.6706 306.557 29.1107 306.557 28.4727V28.4629C306.557 27.8249 306.449 27.265 306.234 26.7832C306.02 26.2949 305.714 25.9173 305.316 25.6504C304.919 25.377 304.444 25.2402 303.891 25.2402C303.337 25.2402 302.865 25.377 302.475 25.6504C302.084 25.9173 301.785 26.2917 301.576 26.7734C301.368 27.2552 301.264 27.8151 301.264 28.4531V28.4727C301.264 29.1172 301.368 29.6803 301.576 30.1621C301.785 30.6374 302.084 31.0117 302.475 31.2852C302.865 31.5521 303.337 31.6855 303.891 31.6855ZM316.244 34.2148C315.196 34.2148 314.291 33.9935 313.529 33.5508C312.774 33.1016 312.191 32.4668 311.781 31.6465C311.378 30.8262 311.176 29.8529 311.176 28.7266V28.7168C311.176 27.6035 311.378 26.6335 311.781 25.8066C312.191 24.9798 312.768 24.3385 313.51 23.8828C314.252 23.4206 315.128 23.1895 316.137 23.1895C317.139 23.1895 318.005 23.4108 318.734 23.8535C319.47 24.2962 320.033 24.918 320.424 25.7188C320.821 26.513 321.02 27.444 321.02 28.5117V29.3125H312.396V27.6816H319.838L318.676 29.2051V28.2383C318.676 27.5352 318.568 26.9525 318.354 26.4902C318.139 26.028 317.842 25.6797 317.465 25.4453C317.094 25.2109 316.661 25.0938 316.166 25.0938C315.671 25.0938 315.232 25.2142 314.848 25.4551C314.464 25.696 314.158 26.0508 313.93 26.5195C313.708 26.9883 313.598 27.5612 313.598 28.2383V29.2051C313.598 29.8561 313.705 30.4128 313.92 30.875C314.141 31.3372 314.454 31.6921 314.857 31.9395C315.268 32.1868 315.749 32.3105 316.303 32.3105C316.732 32.3105 317.104 32.2487 317.416 32.125C317.729 31.9948 317.982 31.8385 318.178 31.6562C318.373 31.4674 318.51 31.2852 318.588 31.1094L318.617 31.041H320.912L320.893 31.1289C320.808 31.487 320.652 31.8483 320.424 32.2129C320.196 32.571 319.893 32.903 319.516 33.209C319.138 33.5085 318.676 33.7526 318.129 33.9414C317.589 34.1237 316.96 34.2148 316.244 34.2148Z" fill="#0FD382"/>
<rect x="106" y="45" width="119" height="26" rx="13" fill="#109D63"/>
<path d="M119.726 63V52.4312H126.464V54.0205H121.616V57.1479H126.047V58.686H121.616V63H119.726ZM128.369 63V54.9946H130.192V56.2251H130.317C130.454 55.7954 130.698 55.4609 131.049 55.2217C131.406 54.9824 131.848 54.8628 132.375 54.8628C132.512 54.8628 132.646 54.8726 132.778 54.8921C132.915 54.9067 133.027 54.9263 133.115 54.9507V56.584C132.968 56.5498 132.819 56.5254 132.668 56.5107C132.521 56.4912 132.368 56.4814 132.207 56.4814C131.801 56.4814 131.447 56.5571 131.145 56.7085C130.842 56.8599 130.607 57.0771 130.441 57.3604C130.275 57.6387 130.192 57.9683 130.192 58.3491V63H128.369ZM137.832 63.1611C137.036 63.1611 136.352 62.9927 135.781 62.6558C135.214 62.3188 134.777 61.8403 134.47 61.2202C134.162 60.6001 134.008 59.8652 134.008 59.0156V59.0083C134.008 58.1685 134.16 57.436 134.462 56.811C134.77 56.186 135.205 55.7026 135.766 55.3608C136.328 55.0142 136.987 54.8408 137.744 54.8408C138.505 54.8408 139.16 55.0093 139.707 55.3462C140.258 55.6782 140.683 56.1445 140.981 56.7451C141.279 57.3457 141.428 58.0488 141.428 58.8545V59.4551H134.924V58.2319H140.534L139.67 59.3745V58.6494C139.67 58.1172 139.589 57.6753 139.428 57.3237C139.267 56.9722 139.042 56.7085 138.754 56.5327C138.471 56.3569 138.142 56.269 137.766 56.269C137.39 56.269 137.055 56.3618 136.762 56.5474C136.474 56.728 136.245 56.9966 136.074 57.353C135.908 57.7046 135.825 58.1367 135.825 58.6494V59.3818C135.825 59.875 135.908 60.2974 136.074 60.6489C136.24 60.9956 136.474 61.2642 136.777 61.4546C137.084 61.6401 137.448 61.7329 137.868 61.7329C138.195 61.7329 138.476 61.6865 138.71 61.5938C138.95 61.4961 139.143 61.3813 139.289 61.2495C139.436 61.1128 139.538 60.9834 139.597 60.8613L139.619 60.8101H141.347L141.333 60.876C141.269 61.1348 141.152 61.3984 140.981 61.667C140.815 61.9307 140.588 62.1772 140.3 62.4067C140.017 62.6313 139.67 62.8145 139.26 62.9561C138.85 63.0928 138.374 63.1611 137.832 63.1611ZM146.679 63.1611C145.883 63.1611 145.2 62.9927 144.628 62.6558C144.062 62.3188 143.625 61.8403 143.317 61.2202C143.01 60.6001 142.856 59.8652 142.856 59.0156V59.0083C142.856 58.1685 143.007 57.436 143.31 56.811C143.618 56.186 144.052 55.7026 144.614 55.3608C145.175 55.0142 145.834 54.8408 146.591 54.8408C147.353 54.8408 148.007 55.0093 148.554 55.3462C149.106 55.6782 149.531 56.1445 149.829 56.7451C150.126 57.3457 150.275 58.0488 150.275 58.8545V59.4551H143.771V58.2319H149.382L148.518 59.3745V58.6494C148.518 58.1172 148.437 57.6753 148.276 57.3237C148.115 56.9722 147.89 56.7085 147.602 56.5327C147.319 56.3569 146.989 56.269 146.613 56.269C146.237 56.269 145.903 56.3618 145.61 56.5474C145.322 56.728 145.092 56.9966 144.921 57.353C144.755 57.7046 144.672 58.1367 144.672 58.6494V59.3818C144.672 59.875 144.755 60.2974 144.921 60.6489C145.087 60.9956 145.322 61.2642 145.625 61.4546C145.932 61.6401 146.296 61.7329 146.716 61.7329C147.043 61.7329 147.324 61.6865 147.558 61.5938C147.797 61.4961 147.99 61.3813 148.137 61.2495C148.283 61.1128 148.386 60.9834 148.444 60.8613L148.466 60.8101H150.195L150.18 60.876C150.117 61.1348 150 61.3984 149.829 61.667C149.663 61.9307 149.436 62.1772 149.147 62.4067C148.864 62.6313 148.518 62.8145 148.107 62.9561C147.697 63.0928 147.221 63.1611 146.679 63.1611ZM156.289 63V52.4312H158.457L161.635 60.5684H161.76L164.931 52.4312H167.099V63H165.4V55.4854H164.477L166.352 52.7241L162.338 63H161.049L157.043 52.7241L158.918 55.4854H157.988V63H156.289ZM169.538 63V54.9946H171.354V63H169.538ZM170.454 53.6543C170.156 53.6543 169.899 53.5493 169.685 53.3394C169.47 53.1294 169.362 52.8779 169.362 52.585C169.362 52.2822 169.47 52.0283 169.685 51.8232C169.899 51.6133 170.156 51.5083 170.454 51.5083C170.751 51.5083 171.005 51.6133 171.215 51.8232C171.43 52.0283 171.538 52.2822 171.538 52.585C171.538 52.8779 171.43 53.1294 171.215 53.3394C171.005 53.5493 170.751 53.6543 170.454 53.6543ZM173.603 63V54.9946H175.427V56.2251H175.551C175.742 55.7905 176.03 55.4512 176.416 55.207C176.801 54.9629 177.282 54.8408 177.858 54.8408C178.752 54.8408 179.436 55.0996 179.909 55.6172C180.383 56.1348 180.62 56.8696 180.62 57.8218V63H178.796V58.2466C178.796 57.6216 178.664 57.1528 178.4 56.8403C178.142 56.5278 177.736 56.3716 177.185 56.3716C176.823 56.3716 176.511 56.4521 176.247 56.6133C175.983 56.7744 175.781 57.0015 175.639 57.2944C175.498 57.5874 175.427 57.9341 175.427 58.3345V63H173.603ZM185.922 63.0366C185.004 63.0366 184.343 62.8682 183.938 62.5312C183.532 62.1943 183.33 61.6426 183.33 60.876V56.4082H182.084V54.9946H183.33V53.0317H185.183V54.9946H186.867V56.4082H185.183V60.4438C185.183 60.8394 185.266 61.1299 185.432 61.3154C185.603 61.4961 185.876 61.5864 186.252 61.5864C186.384 61.5864 186.491 61.584 186.574 61.5791C186.662 61.5693 186.76 61.5596 186.867 61.5498V62.9561C186.74 62.9805 186.594 63 186.428 63.0146C186.267 63.0293 186.098 63.0366 185.922 63.0366Z" fill="white"/>
<path d="M210.5 58H195.5" stroke="white" stroke-width="1.5" stroke-linecap="round" stroke-linejoin="round"/>
<path d="M205.5 53L210.5 58L205.5 63" stroke="white" stroke-width="1.5" stroke-linecap="round" stroke-linejoin="round"/>
<g filter="url(#filter6_d_12985_100383)">
<path d="M70.6338 0L59.375 16.9776H65.0044L76.2632 0H70.6338Z" fill="#428BC1"/>
<path d="M64.981 0L53.6328 16.9776H59.3516L70.6104 0H64.981Z" fill="#E8E8E8"/>
<path d="M59.3599 0L48.0117 16.9776H53.6411L64.9893 0H59.3599Z" fill="#ED4C5C"/>
<path d="M48.0303 16.9776H53.6597L42.4009 0H36.7715L48.0303 16.9776Z" fill="#ED4C5C"/>
<path d="M53.6514 16.9776H59.3702L48.022 0H42.3926L53.6514 16.9776Z" fill="#E8E8E8"/>
<path opacity="0.5" d="M57.5039 2.86719L54.6445 7.06691L61.2569 16.9854H65.0098L65.9034 15.5557L57.5039 2.86719Z" fill="#3E4347"/>
<path d="M59.3599 16.9776H64.9893L53.6411 0H48.0117L59.3599 16.9776Z" fill="#428BC1"/>
<g clip-path="url(#clip1_12985_100383)">
<rect x="24.7344" y="9.47656" width="63.7587" height="63.7587" rx="31.8794" fill="white"/>
<circle cx="56.6137" cy="41.3559" r="31.0178" stroke="url(#paint3_linear_12985_100383)" stroke-width="1.72321"/>
<g filter="url(#filter7_ii_12985_100383)">
<circle cx="56.6112" cy="41.3593" r="30.1562" fill="url(#paint4_linear_12985_100383)"/>
</g>
<path d="M38.5661 62.8952C38.2405 62.6394 38.2047 62.2897 38.4713 61.9503L41.5631 58.0148C41.8298 57.6754 42.178 57.6274 42.5036 57.8833L44.8176 59.7012C45.1022 59.9247 45.1607 60.2313 44.9506 60.4987C44.7406 60.7661 44.4254 60.7791 44.1443 60.5582L42.348 59.147L41.3084 60.4703L42.9368 61.7495C43.2042 61.9596 43.2578 62.2512 43.0585 62.5049C42.8565 62.762 42.5639 62.7816 42.2931 62.5689L40.6647 61.2896L39.5066 62.7637C39.24 63.1031 38.8918 63.1511 38.5661 62.8952Z" fill="white"/>
<path d="M43.2444 66.1904C42.9097 66.0028 42.8063 65.6701 43.013 65.3012L44.7518 62.1976C44.9499 61.8439 45.2818 61.76 45.6013 61.939C45.9131 62.1137 46.0111 62.4384 45.8129 62.7921L45.6637 63.0584L45.6866 63.0712C46.0764 62.625 46.5795 62.512 46.9864 62.74C47.1348 62.8231 47.2335 62.9234 47.275 63.0366C47.3346 63.18 47.3112 63.3467 47.2046 63.5369C47.1066 63.7118 46.9788 63.8151 46.8211 63.8467C46.6635 63.8783 46.4761 63.8383 46.2571 63.7206C45.747 63.4448 45.4085 63.6299 45.1379 64.113L44.1236 65.9233C43.9169 66.2923 43.5829 66.38 43.2444 66.1904Z" fill="white"/>
<path d="M48.1424 68.4379C46.7612 67.9634 46.2421 66.8309 46.7336 65.4002C47.2223 63.9778 48.3612 63.3595 49.6682 63.8085C50.9216 64.2391 51.4681 65.3856 51.0559 66.5854C50.9412 66.9194 50.6864 67.0439 50.3524 66.9292L47.8291 66.0624L47.8107 66.116C47.5855 66.7715 47.834 67.3363 48.4442 67.5459C48.8854 67.6975 49.225 67.6482 49.6824 67.3766C49.8556 67.2886 49.9783 67.2801 50.135 67.3339C50.3948 67.4231 50.5484 67.6603 50.4535 67.9365C50.4209 68.0314 50.3581 68.1204 50.2705 68.2009C49.7908 68.6446 48.9959 68.7311 48.1424 68.4379ZM48.095 65.3286L49.971 65.973C50.1445 65.3873 49.9024 64.8846 49.3746 64.7033C48.8469 64.5221 48.3303 64.7779 48.095 65.3286Z" fill="white"/>
<path d="M54.2326 69.7713C52.7786 69.6342 52.0083 68.6551 52.1504 67.149C52.2916 65.6516 53.2536 64.7834 54.6295 64.9131C55.9489 65.0376 56.7492 66.0239 56.6301 67.2869C56.5969 67.6384 56.3785 67.8193 56.0269 67.7861L53.3706 67.5356L53.3653 67.592C53.3002 68.2821 53.6743 68.7728 54.3167 68.8334C54.7811 68.8772 55.0997 68.7496 55.4806 68.3783C55.6283 68.2521 55.7456 68.215 55.9105 68.2305C56.184 68.2563 56.389 68.4508 56.3615 68.7416C56.3521 68.8414 56.3119 68.9427 56.2457 69.0416C55.8835 69.5855 55.1311 69.856 54.2326 69.7713ZM53.4569 66.7599L55.4318 66.9462C55.463 66.3361 55.1096 65.9043 54.5541 65.8519C53.9985 65.7995 53.5564 66.1694 53.4569 66.7599Z" fill="white"/>
<path d="M64.1535 68.7947C62.3495 69.3202 60.902 68.4658 60.3302 66.5028C59.767 64.569 60.5307 63.0752 62.3054 62.5583C63.4648 62.2206 64.5316 62.5002 65.0864 63.1423C65.2002 63.2681 65.2565 63.3834 65.2918 63.5048C65.3857 63.8271 65.2285 64.1135 64.8978 64.2098C64.6299 64.2878 64.4087 64.2297 64.1794 64.0195C63.725 63.5661 63.2087 63.4304 62.6143 63.6035C61.6182 63.8936 61.2403 64.8256 61.6145 66.1105C61.9961 67.4207 62.8651 68.0348 63.8697 67.7422C64.6943 67.5021 65.1202 66.8286 64.9271 66.0721L64.9032 65.9746L64.0243 66.2306C63.7229 66.3183 63.4678 66.2065 63.3837 65.9177C63.2996 65.6289 63.4505 65.3987 63.7561 65.3097L65.2336 64.8794C65.6312 64.7636 65.9363 64.9381 66.057 65.3525L66.0838 65.4446C66.5312 66.9807 65.8571 68.2986 64.1535 68.7947Z" fill="white"/>
<path d="M69.5259 66.4445C68.76 66.8965 67.8856 66.7444 67.4579 66.0198C67.0258 65.2876 67.3386 64.531 68.3094 63.8771L69.2876 63.2188L69.1303 62.9522C68.9087 62.5768 68.5174 62.5141 68.1044 62.7578C67.7703 62.9551 67.6318 63.1836 67.5739 63.643C67.5335 63.849 67.4345 63.9986 67.258 64.1028C66.9914 64.2601 66.698 64.2004 66.5518 63.9526C66.5008 63.8662 66.4731 63.7763 66.4619 63.6715C66.366 63.0802 66.8367 62.4025 67.6702 61.9106C68.7027 61.3012 69.6893 61.4377 70.168 62.2487L71.5218 64.5427C71.7367 64.9069 71.626 65.2253 71.3144 65.4092C71.0178 65.5843 70.7138 65.5409 70.5007 65.2314L70.3788 65.0249L70.3563 65.0382C70.3836 65.5991 70.029 66.1476 69.5259 66.4445ZM69.4188 65.4396C69.8994 65.156 70.1097 64.6117 69.8526 64.1762L69.6798 63.8833L68.8623 64.4366C68.4708 64.7082 68.3466 65.0296 68.515 65.3149C68.6923 65.6152 69.0509 65.6567 69.4188 65.4396Z" fill="white"/>
<path d="M74.6441 62.797C73.8401 63.5067 73.0502 63.6923 72.52 63.4276C72.4423 63.3857 72.3744 63.3352 72.3283 63.2829C72.135 63.0639 72.1686 62.7726 72.3908 62.5764C72.5444 62.4408 72.7357 62.394 72.9963 62.4257C73.399 62.5063 73.7128 62.427 74.0756 62.1068C74.422 61.801 74.5206 61.4581 74.3157 61.2261C74.1484 61.0365 73.938 61.0419 73.5285 61.2697L72.8306 61.6648C72.0144 62.1236 71.3592 62.0797 70.9005 61.5601C70.3091 60.89 70.5067 59.948 71.4153 59.1459C72.1409 58.5054 72.965 58.3652 73.4285 58.6597C73.4849 58.6972 73.535 58.7343 73.5754 58.7801C73.7457 58.9729 73.743 59.2137 73.4979 59.43C73.3737 59.5397 73.196 59.6151 73.0216 59.5888C72.6674 59.5235 72.3336 59.5274 71.9904 59.8303C71.6669 60.116 71.5769 60.4686 71.776 60.6942C71.9376 60.8772 72.1816 60.8769 72.5977 60.6434L73.2858 60.2569C74.1695 59.756 74.719 59.7594 75.1806 60.2823C75.7952 60.9784 75.5691 61.9805 74.6441 62.797Z" fill="white"/>
<g clip-path="url(#clip2_12985_100383)">
<path d="M35.6865 47.2238C35.332 47.798 34.8479 48.142 34.6052 47.9922C34.3627 47.8424 34.4533 47.2554 34.808 46.6813C35.1625 46.1071 35.6467 45.7631 35.8892 45.9129C36.1319 46.0628 36.041 46.6498 35.6865 47.2238ZM35.4664 49.319C34.8589 49.6126 34.2657 49.6422 34.1416 49.3855C34.0177 49.1287 34.4098 48.6826 35.0174 48.3892C35.6251 48.0958 36.2183 48.066 36.3422 48.3228C36.4663 48.5795 36.0741 49.0255 35.4664 49.319ZM33.8469 49.2282C33.5762 49.3175 33.1851 48.8706 32.9736 48.2298C32.7619 47.589 32.8099 46.9972 33.0806 46.9077C33.3513 46.8183 33.7424 47.2652 33.9539 47.906C34.1656 48.5468 34.1176 49.1387 33.8469 49.2282ZM35.0478 51.0513C34.4897 51.4307 33.9073 51.5469 33.7471 51.3112C33.5868 51.0754 33.9092 50.5767 34.4673 50.1973C35.0255 49.8179 35.6078 49.7016 35.7681 49.9375C35.9285 50.1733 35.6059 50.6719 35.0478 51.0513ZM33.4068 51.2171C33.2421 51.3001 32.9851 51.1687 32.7328 50.8724C32.4805 50.5762 32.2711 50.16 32.1836 49.7809C32.096 49.4017 32.1437 49.117 32.3085 49.0342C32.4733 48.9513 32.7302 49.0827 32.9826 49.379C33.2348 49.6753 33.4442 50.0914 33.5317 50.4706C33.6192 50.8497 33.5717 51.1343 33.4068 51.2171ZM35.3825 52.6274C34.9904 53.1766 34.4843 53.4874 34.2523 53.3217C34.0203 53.1561 34.1501 52.5765 34.5423 52.0273C34.9345 51.4782 35.4405 51.1673 35.6725 51.333C35.9046 51.4988 35.7747 52.0783 35.3825 52.6274ZM33.8973 53.3463C33.7715 53.4811 33.485 53.4468 33.1456 53.2563C32.8063 53.0657 32.4658 52.7478 32.2524 52.4224C32.039 52.097 31.9851 51.8135 32.1109 51.6786C32.2368 51.5437 32.5233 51.5781 32.8626 51.7686C33.202 51.9592 33.5425 52.2769 33.7559 52.6025C33.9694 52.9279 34.0233 53.2115 33.8973 53.3463ZM36.1801 54.0777C35.9982 54.7277 35.6283 55.1922 35.3537 55.1155C35.0791 55.0386 35.0038 54.4495 35.1855 53.7996C35.3673 53.1498 35.7372 52.6852 36.0118 52.7619C36.2866 52.8387 36.3619 53.4278 36.1801 54.0777ZM35.0294 55.2495C34.9569 55.4191 34.6759 55.4845 34.292 55.4209C33.9081 55.3572 33.4797 55.1743 33.1681 54.941C32.8567 54.7078 32.7094 54.4596 32.7819 54.2899C32.8544 54.1203 33.1354 54.0549 33.5194 54.1185C33.9033 54.1821 34.3317 54.3651 34.6432 54.5984C34.9546 54.8316 35.1018 55.0799 35.0294 55.2495ZM37.4651 55.131C37.5527 55.8001 37.3945 56.3724 37.1117 56.4096C36.8289 56.4466 36.5287 55.9341 36.4412 55.265C36.3536 54.5959 36.5118 54.0236 36.7946 53.9864C37.0774 53.9493 37.3775 54.4618 37.4651 55.131ZM36.8597 56.68C36.8596 56.8644 36.6266 57.0346 36.2484 57.1266C35.8703 57.2185 35.4045 57.2181 35.0265 57.1255C34.6484 57.0329 34.4158 56.8623 34.4159 56.6779C34.4161 56.4933 34.6491 56.3232 35.0272 56.2313C35.4053 56.1393 35.8712 56.1397 36.2491 56.2324C36.6272 56.3248 36.8599 56.4954 36.8597 56.68ZM38.9144 57.0791C38.7418 57.1439 38.5004 56.9855 38.2814 56.6639C38.0625 56.3422 37.899 55.906 37.8528 55.5195C37.8066 55.1331 37.8845 54.8552 38.0573 54.7906C38.2301 54.7259 38.4714 54.8842 38.6903 55.2059C38.9093 55.5275 39.0727 55.9638 39.1189 56.3502C39.1651 56.7366 39.0872 57.0145 38.9144 57.0791ZM38.7385 57.3817C38.7801 57.5615 38.5916 57.78 38.2441 57.9552C37.8965 58.1303 37.4427 58.2353 37.0536 58.2307C36.6644 58.2261 36.3991 58.1125 36.3575 57.9328C36.3159 57.7531 36.5043 57.5345 36.8519 57.3595C37.1995 57.1844 37.6534 57.0794 38.0424 57.084C38.4316 57.0884 38.697 57.202 38.7385 57.3817Z" fill="white"/>
</g>
<g clip-path="url(#clip3_12985_100383)">
<path d="M78.3358 46.5096C78.7037 47.0752 79.1958 47.4077 79.4348 47.2522C79.6737 47.0968 79.5694 46.5121 79.2013 45.9465C78.8333 45.3808 78.3412 45.0483 78.1023 45.2037C77.8632 45.3594 77.9678 45.944 78.3358 46.5096ZM78.6051 48.599C79.2194 48.8781 79.8131 48.8938 79.9311 48.6342C80.049 48.3746 79.6465 47.9379 79.0321 47.6589C78.4177 47.3798 77.824 47.364 77.7061 47.6236C77.5881 47.8832 77.9907 48.3199 78.6051 48.599ZM80.222 48.47C80.4948 48.553 80.8753 48.097 81.0716 47.4514C81.2681 46.8058 81.2063 46.2153 80.9335 46.1322C80.6607 46.0492 80.2803 46.5052 80.0839 47.1508C79.8874 47.7964 79.9493 48.3869 80.222 48.47ZM79.0644 50.3209C79.6312 50.6871 80.2162 50.7896 80.3708 50.5501C80.5255 50.3106 80.1914 49.8196 79.6246 49.4535C79.0577 49.0873 78.4727 48.9848 78.318 49.2244C78.1632 49.4639 78.4975 49.9547 79.0644 50.3209ZM80.7088 50.4481C80.8754 50.5271 81.1292 50.3897 81.3745 50.0876C81.6198 49.7855 81.8194 49.3645 81.8979 48.9835C81.9765 48.6023 81.9222 48.3188 81.7554 48.2399C81.5888 48.1609 81.335 48.2984 81.0897 48.6005C80.8445 48.9026 80.645 49.3236 80.5664 49.7046C80.4878 50.0857 80.542 50.3691 80.7088 50.4481ZM78.7668 51.9045C79.1718 52.4443 79.6851 52.7431 79.9131 52.572C80.1412 52.4009 79.9977 51.8245 79.5927 51.2847C79.1877 50.745 78.6745 50.4461 78.4465 50.6172C78.2184 50.7884 78.3619 51.3647 78.7668 51.9045ZM80.2685 52.5882C80.3975 52.72 80.6831 52.6789 81.0179 52.4805C81.3527 52.282 81.6856 51.9562 81.8913 51.6259C82.097 51.2955 82.1441 51.0108 82.0152 50.8789C81.8862 50.747 81.6006 50.7882 81.2658 50.9866C80.9311 51.1851 80.5981 51.5108 80.3924 51.8412C80.1866 52.1717 80.1394 52.4564 80.2685 52.5882ZM78.0037 53.3732C78.2008 54.0186 78.5815 54.4743 78.8542 54.3912C79.1269 54.3079 79.1883 53.7172 78.9914 53.0717C78.7944 52.4263 78.4136 51.9706 78.1409 52.0538C77.868 52.137 77.8066 52.7277 78.0037 53.3732ZM79.1816 54.5175C79.258 54.6854 79.5405 54.7441 79.9228 54.6715C80.3051 54.5988 80.7291 54.4058 81.0351 54.1653C81.3409 53.9248 81.4824 53.6732 81.4058 53.5053C81.3294 53.3374 81.0469 53.2787 80.6645 53.3513C80.2822 53.4239 79.8583 53.6169 79.5524 53.8575C79.2465 54.098 79.1052 54.3496 79.1816 54.5175ZM76.7438 54.4563C76.6719 55.1274 76.8436 55.6958 77.1271 55.7263C77.4107 55.7566 77.6988 55.2372 77.7705 54.5663C77.8423 53.8953 77.6707 53.3268 77.3871 53.2964C77.1036 53.2659 76.8156 53.7853 76.7438 54.4563ZM77.3854 55.9907C77.3898 56.175 77.6269 56.3398 78.0071 56.4228C78.3873 56.5058 78.8529 56.4944 79.2286 56.3929C79.6044 56.2915 79.8329 56.1154 79.8285 55.9311C79.824 55.7466 79.5871 55.582 79.2069 55.499C78.8267 55.4159 78.361 55.4273 77.9853 55.5288C77.6096 55.6301 77.3809 55.8062 77.3854 55.9907ZM75.3407 56.4381C75.5148 56.4988 75.7524 56.3347 75.9637 56.008C76.1751 55.6813 76.3282 55.2413 76.3653 54.8539C76.4024 54.4665 76.318 54.1906 76.1437 54.13C75.9694 54.0694 75.732 54.2334 75.5206 54.5601C75.3093 54.8868 75.1562 55.3268 75.1191 55.7142C75.082 56.1016 75.1664 56.3775 75.3407 56.4381ZM75.5237 56.7365C75.4863 56.9171 75.68 57.1312 76.0314 57.2981C76.3831 57.465 76.8392 57.5593 77.2281 57.5455C77.6171 57.5318 77.8796 57.412 77.917 57.2313C77.9544 57.0507 77.7608 56.8366 77.4092 56.6698C77.0576 56.5029 76.6014 56.4086 76.2125 56.4224C75.8236 56.436 75.5609 56.5558 75.5237 56.7365Z" fill="white"/>
</g>
<g filter="url(#filter8_d_12985_100383)">
<g filter="url(#filter9_bd_12985_100383)">
<path d="M64.4023 22.6396C72.1422 26.9017 80.2439 37.1319 78.6051 40.7936C77.5366 43.1812 72.7381 43.0969 67.0284 42.3844C66.5717 43.1866 65.3747 44.6553 63.7066 46.3532C64.6569 46.7979 65.4273 47.3342 66.0928 47.9471C67.3428 49.0985 67.8654 50.893 66.9312 51.3897C66.377 51.6845 65.321 51.3664 63.98 50.9626C62.8096 50.6101 61.4222 50.1923 59.9619 50.0594C59.8703 50.0511 59.7793 50.0431 59.6888 50.0356C56.8652 52.3666 53.5654 54.5788 50.3682 55.7327C48.8271 56.2888 44.7229 56.6931 44.7229 55.2011C44.7229 54.6331 45.3446 54.0988 46.4142 53.1798C47.3019 52.4169 48.4982 51.3889 49.9036 49.8563L49.8673 49.847C49.9149 49.795 49.9629 49.7425 50.011 49.6894C49.5225 49.6535 49.0131 49.6098 48.479 49.5565C43.8005 49.0891 41.397 47.5631 40.7485 43.7646C40.5046 43.8145 39.9557 43.9218 39.7472 43.9218C38.2817 43.9218 37.0938 42.7336 37.0938 41.2679C37.0938 39.8022 38.2817 38.6139 39.7472 38.6139C40.1304 38.6139 40.4947 38.6952 40.8237 38.8414C42.1776 34.427 45.6809 31.5044 49.8961 30.2646C56.1513 28.425 61.4822 30.7088 63.911 33.3609C64.6806 31.9765 65.9846 30.8914 67.3719 30.2801L67.2964 30.2473C65.7028 29.4803 63.9195 28.7399 62.1676 28.0126C58.0465 26.3017 54.0994 24.6631 53.2054 22.9198C53.2085 22.9131 53.2116 22.9065 53.2149 22.8998C53.2219 22.8853 53.2296 22.871 53.238 22.8569C52.9877 22.3297 53.0188 21.7927 53.4105 21.2412C54.4401 19.7915 59.5236 19.3378 64.4023 22.6396Z" fill="url(#paint5_linear_12985_100383)" fill-opacity="0.4" shape-rendering="crispEdges"/>
</g>
<path d="M64.4023 22.6396C72.1422 26.9017 80.2439 37.1319 78.6051 40.7936C77.5366 43.1812 72.7381 43.0969 67.0284 42.3844C66.5717 43.1866 65.3747 44.6553 63.7066 46.3532C64.6569 46.7979 65.4273 47.3342 66.0928 47.9471C67.3428 49.0985 67.8654 50.893 66.9312 51.3897C66.377 51.6845 65.321 51.3664 63.98 50.9626C62.8096 50.6101 61.4222 50.1923 59.9619 50.0594C59.8703 50.0511 59.7793 50.0431 59.6888 50.0356C56.8652 52.3666 53.5654 54.5788 50.3682 55.7327C48.8271 56.2888 44.7229 56.6931 44.7229 55.2011C44.7229 54.6331 45.3446 54.0988 46.4142 53.1798C47.3019 52.4169 48.4982 51.3889 49.9036 49.8563L49.8673 49.847C49.9149 49.795 49.9629 49.7425 50.011 49.6894C49.5225 49.6535 49.0131 49.6098 48.479 49.5565C43.8005 49.0891 41.397 47.5631 40.7485 43.7646C40.5046 43.8145 39.9557 43.9218 39.7472 43.9218C38.2817 43.9218 37.0938 42.7336 37.0938 41.2679C37.0938 39.8022 38.2817 38.6139 39.7472 38.6139C40.1304 38.6139 40.4947 38.6952 40.8237 38.8414C42.1776 34.427 45.6809 31.5044 49.8961 30.2646C56.1513 28.425 61.4822 30.7088 63.911 33.3609C64.6806 31.9765 65.9846 30.8914 67.3719 30.2801L67.2964 30.2473C65.7028 29.4803 63.9195 28.7399 62.1676 28.0126C58.0465 26.3017 54.0994 24.6631 53.2054 22.9198C53.2085 22.9131 53.2116 22.9065 53.2149 22.8998C53.2219 22.8853 53.2296 22.871 53.238 22.8569C52.9877 22.3297 53.0188 21.7927 53.4105 21.2412C54.4401 19.7915 59.5236 19.3378 64.4023 22.6396Z" fill="url(#paint6_linear_12985_100383)" fill-opacity="0.4" stroke="url(#paint7_linear_12985_100383)" stroke-width="0.482423"/>
</g>
</g>
</g>
</g>
<rect x="0.5" y="0.5" width="349" height="91" rx="11.5" stroke="#109D63" stroke-opacity="0.1"/>
<defs>
<filter id="filter0_f_12985_100383" x="-123.41" y="-98.1189" width="302.085" height="299.589" filterUnits="userSpaceOnUse" color-interpolation-filters="sRGB">
<feFlood flood-opacity="0" result="BackgroundImageFix"/>
<feBlend mode="normal" in="SourceGraphic" in2="BackgroundImageFix" result="shape"/>
<feGaussianBlur stdDeviation="24.9657" result="effect1_foregroundBlur_12985_100383"/>
</filter>
<filter id="filter1_f_12985_100383" x="131.061" y="27.9514" width="302.085" height="299.589" filterUnits="userSpaceOnUse" color-interpolation-filters="sRGB">
<feFlood flood-opacity="0" result="BackgroundImageFix"/>
<feBlend mode="normal" in="SourceGraphic" in2="BackgroundImageFix" result="shape"/>
<feGaussianBlur stdDeviation="24.9657" result="effect1_foregroundBlur_12985_100383"/>
</filter>
<filter id="filter2_f_12985_100383" x="-116.082" y="-205.728" width="302.085" height="299.589" filterUnits="userSpaceOnUse" color-interpolation-filters="sRGB">
<feFlood flood-opacity="0" result="BackgroundImageFix"/>
<feBlend mode="normal" in="SourceGraphic" in2="BackgroundImageFix" result="shape"/>
<feGaussianBlur stdDeviation="24.9657" result="effect1_foregroundBlur_12985_100383"/>
</filter>
<filter id="filter3_d_12985_100383" x="212.246" y="-93.8828" width="279.178" height="192.828" filterUnits="userSpaceOnUse" color-interpolation-filters="sRGB">
<feFlood flood-opacity="0" result="BackgroundImageFix"/>
<feColorMatrix in="SourceAlpha" type="matrix" values="0 0 0 0 0 0 0 0 0 0 0 0 0 0 0 0 0 0 127 0" result="hardAlpha"/>
<feOffset dy="-4"/>
<feGaussianBlur stdDeviation="8"/>
<feComposite in2="hardAlpha" operator="out"/>
<feColorMatrix type="matrix" values="0 0 0 0 0 0 0 0 0 0 0 0 0 0 0 0 0 0 0.12 0"/>
<feBlend mode="normal" in2="BackgroundImageFix" result="effect1_dropShadow_12985_100383"/>
<feBlend mode="normal" in="SourceGraphic" in2="effect1_dropShadow_12985_100383" result="shape"/>
</filter>
<filter id="filter4_d_12985_100383" x="251.52" y="-17.1484" width="231.154" height="128.344" filterUnits="userSpaceOnUse" color-interpolation-filters="sRGB">
<feFlood flood-opacity="0" result="BackgroundImageFix"/>
<feColorMatrix in="SourceAlpha" type="matrix" values="0 0 0 0 0 0 0 0 0 0 0 0 0 0 0 0 0 0 127 0" result="hardAlpha"/>
<feOffset dy="-4"/>
<feGaussianBlur stdDeviation="8"/>
<feComposite in2="hardAlpha" operator="out"/>
<feColorMatrix type="matrix" values="0 0 0 0 0 0 0 0 0 0 0 0 0 0 0 0 0 0 0.12 0"/>
<feBlend mode="normal" in2="BackgroundImageFix" result="effect1_dropShadow_12985_100383"/>
<feBlend mode="normal" in="SourceGraphic" in2="effect1_dropShadow_12985_100383" result="shape"/>
</filter>
<filter id="filter5_d_12985_100383" x="-110.939" y="52.2969" width="235.455" height="195.641" filterUnits="userSpaceOnUse" color-interpolation-filters="sRGB">
<feFlood flood-opacity="0" result="BackgroundImageFix"/>
<feColorMatrix in="SourceAlpha" type="matrix" values="0 0 0 0 0 0 0 0 0 0 0 0 0 0 0 0 0 0 127 0" result="hardAlpha"/>
<feOffset dy="-4"/>
<feGaussianBlur stdDeviation="8"/>
<feComposite in2="hardAlpha" operator="out"/>
<feColorMatrix type="matrix" values="0 0 0 0 0 0 0 0 0 0 0 0 0 0 0 0 0 0 0.12 0"/>
<feBlend mode="normal" in2="BackgroundImageFix" result="effect1_dropShadow_12985_100383"/>
<feBlend mode="normal" in="SourceGraphic" in2="effect1_dropShadow_12985_100383" result="shape"/>
</filter>
<filter id="filter6_d_12985_100383" x="10.2352" y="-4.88242" width="95.5297" height="95.5297" filterUnits="userSpaceOnUse" color-interpolation-filters="sRGB">
<feFlood flood-opacity="0" result="BackgroundImageFix"/>
<feColorMatrix in="SourceAlpha" type="matrix" values="0 0 0 0 0 0 0 0 0 0 0 0 0 0 0 0 0 0 127 0" result="hardAlpha"/>
<feOffset dy="4.88242"/>
<feGaussianBlur stdDeviation="4.88242"/>
<feComposite in2="hardAlpha" operator="out"/>
<feColorMatrix type="matrix" values="0 0 0 0 0.0888892 0 0 0 0 0.463875 0 0 0 0 0.171386 0 0 0 0.32 0"/>
<feBlend mode="normal" in2="BackgroundImageFix" result="effect1_dropShadow_12985_100383"/>
<feBlend mode="normal" in="SourceGraphic" in2="effect1_dropShadow_12985_100383" result="shape"/>
</filter>
<filter id="filter7_ii_12985_100383" x="26.4551" y="11.2031" width="60.3125" height="60.3125" filterUnits="userSpaceOnUse" color-interpolation-filters="sRGB">
<feFlood flood-opacity="0" result="BackgroundImageFix"/>
<feBlend mode="normal" in="SourceGraphic" in2="BackgroundImageFix" result="shape"/>
<feColorMatrix in="SourceAlpha" type="matrix" values="0 0 0 0 0 0 0 0 0 0 0 0 0 0 0 0 0 0 127 0" result="hardAlpha"/>
<feOffset dx="1.72321" dy="1.72321"/>
<feComposite in2="hardAlpha" operator="arithmetic" k2="-1" k3="1"/>
<feColorMatrix type="matrix" values="0 0 0 0 0.32549 0 0 0 0 0.576471 0 0 0 0 0.380706 0 0 0 1 0"/>
<feBlend mode="normal" in2="shape" result="effect1_innerShadow_12985_100383"/>
<feColorMatrix in="SourceAlpha" type="matrix" values="0 0 0 0 0 0 0 0 0 0 0 0 0 0 0 0 0 0 127 0" result="hardAlpha"/>
<feOffset dx="-0.861604" dy="-0.861604"/>
<feComposite in2="hardAlpha" operator="arithmetic" k2="-1" k3="1"/>
<feColorMatrix type="matrix" values="0 0 0 0 1 0 0 0 0 1 0 0 0 0 1 0 0 0 0.25 0"/>
<feBlend mode="normal" in2="effect1_innerShadow_12985_100383" result="effect2_innerShadow_12985_100383"/>
</filter>
<filter id="filter8_d_12985_100383" x="29.5279" y="13.7954" width="56.8563" height="51.2254" filterUnits="userSpaceOnUse" color-interpolation-filters="sRGB">
<feFlood flood-opacity="0" result="BackgroundImageFix"/>
<feColorMatrix in="SourceAlpha" type="matrix" values="0 0 0 0 0 0 0 0 0 0 0 0 0 0 0 0 0 0 127 0" result="hardAlpha"/>
<feOffset dy="1.22061"/>
<feGaussianBlur stdDeviation="3.66182"/>
<feComposite in2="hardAlpha" operator="out"/>
<feColorMatrix type="matrix" values="0 0 0 0 0.128739 0 0 0 0 0.513914 0 0 0 0 0.382313 0 0 0 0.48 0"/>
<feBlend mode="normal" in2="BackgroundImageFix" result="effect1_dropShadow_12985_100383"/>
<feBlend mode="normal" in="SourceGraphic" in2="effect1_dropShadow_12985_100383" result="shape"/>
</filter>
<filter id="filter9_bd_12985_100383" x="21.6562" y="9.84893" width="72.5997" height="69.5417" filterUnits="userSpaceOnUse" color-interpolation-filters="sRGB">
<feFlood flood-opacity="0" result="BackgroundImageFix"/>
<feGaussianBlur in="BackgroundImageFix" stdDeviation="5.14585"/>
<feComposite in2="SourceAlpha" operator="in" result="effect1_backgroundBlur_12985_100383"/>
<feColorMatrix in="SourceAlpha" type="matrix" values="0 0 0 0 0 0 0 0 0 0 0 0 0 0 0 0 0 0 127 0" result="hardAlpha"/>
<feOffset dy="7.71877"/>
<feGaussianBlur stdDeviation="7.71877"/>
<feComposite in2="hardAlpha" operator="out"/>
<feColorMatrix type="matrix" values="0 0 0 0 0.132862 0 0 0 0 0.270563 0 0 0 0 0.45625 0 0 0 0.27 0"/>
<feBlend mode="normal" in2="effect1_backgroundBlur_12985_100383" result="effect2_dropShadow_12985_100383"/>
<feBlend mode="normal" in="SourceGraphic" in2="effect2_dropShadow_12985_100383" result="shape"/>
</filter>
<linearGradient id="paint0_linear_12985_100383" x1="350.212" y1="-75.0033" x2="350.212" y2="52.2422" gradientUnits="userSpaceOnUse">
<stop stop-color="white"/>
<stop offset="1" stop-color="white" stop-opacity="0"/>
</linearGradient>
<linearGradient id="paint1_linear_12985_100383" x1="366.498" y1="64.2422" x2="366.498" y2="2.18127" gradientUnits="userSpaceOnUse">
<stop stop-color="white" stop-opacity="0"/>
<stop offset="1" stop-color="white"/>
</linearGradient>
<linearGradient id="paint2_linear_12985_100383" x1="6.74395" y1="156.273" x2="-23.7493" y2="102.221" gradientUnits="userSpaceOnUse">
<stop stop-color="white" stop-opacity="0"/>
<stop offset="1" stop-color="white"/>
</linearGradient>
<linearGradient id="paint3_linear_12985_100383" x1="39.3078" y1="10.8428" x2="75.7414" y2="70.5028" gradientUnits="userSpaceOnUse">
<stop stop-color="#6CF4BC"/>
<stop offset="1" stop-color="#167E53"/>
</linearGradient>
<linearGradient id="paint4_linear_12985_100383" x1="42.6102" y1="17.8806" x2="73.2858" y2="66.5485" gradientUnits="userSpaceOnUse">
<stop stop-color="#3EC68E"/>
<stop offset="0.344325" stop-color="#2AB17A"/>
<stop offset="0.714124" stop-color="#3EC68E"/>
<stop offset="1" stop-color="#1C8258"/>
</linearGradient>
<linearGradient id="paint5_linear_12985_100383" x1="54.1478" y1="18.6505" x2="57.1282" y2="51.2685" gradientUnits="userSpaceOnUse">
<stop stop-color="white"/>
<stop offset="0.0001" stop-color="white"/>
<stop offset="1" stop-color="white" stop-opacity="0.3"/>
</linearGradient>
<linearGradient id="paint6_linear_12985_100383" x1="54.1478" y1="18.6505" x2="57.1282" y2="51.2685" gradientUnits="userSpaceOnUse">
<stop stop-color="white"/>
<stop offset="0.0001" stop-color="white"/>
<stop offset="1" stop-color="white" stop-opacity="0.3"/>
</linearGradient>
<linearGradient id="paint7_linear_12985_100383" x1="50.0617" y1="22.1203" x2="60.6052" y2="47.1291" gradientUnits="userSpaceOnUse">
<stop stop-color="white"/>
<stop offset="1" stop-color="white" stop-opacity="0.04"/>
</linearGradient>
<clipPath id="clip0_12985_100383">
<rect width="350" height="92" rx="12" fill="white"/>
</clipPath>
<clipPath id="clip1_12985_100383">
<rect x="24.7344" y="9.47656" width="63.7587" height="63.7587" rx="31.8794" fill="white"/>
</clipPath>
<clipPath id="clip2_12985_100383">
<rect width="12.9461" height="12.9461" fill="white" transform="matrix(-0.970206 0.242281 0.242281 0.970206 39.873 44.5469)"/>
</clipPath>
<clipPath id="clip3_12985_100383">
<rect width="12.9461" height="12.9461" fill="white" transform="translate(74.0957 43.9375) rotate(12.6726)"/>
</clipPath>
</defs>
</svg>
